<?xml version="1.0" standalone="no"?>
<!DOCTYPE svg PUBLIC "-//W3C//DTD SVG 20010904//EN"
 "http://www.w3.org/TR/2001/REC-SVG-20010904/DTD/svg10.dtd">
<svg version="1.0" xmlns="http://www.w3.org/2000/svg"
 width="250.000000pt" height="75.000000pt" viewBox="0 0 1000.000000 300.000000"
 preserveAspectRatio="xMidYMid meet">
<metadata>
Created by potrace 1.16, written by Peter Selinger 2001-2019
</metadata>
<g transform="translate(0.000000,300.000000) scale(0.100000,-0.100000)"
fill="#960014" stroke="none">
<path d="M6295 2545 c-54 -53 -16 -145 60 -145 49 0 85 36 85 85 0 49 -36 85
-85 85 -25 0 -44 -8 -60 -25z"/>
<path d="M4750 2399 l0 -151 -35 30 c-56 50 -126 63 -207 38 -64 -19 -110 -57
-144 -118 -24 -46 -29 -66 -32 -148 -4 -110 17 -186 71 -247 79 -90 241 -99
322 -19 l25 25 0 -34 0 -35 70 0 70 0 0 405 0 405 -70 0 -70 0 0 -151z m-73
-220 c48 -30 67 -72 68 -149 0 -103 -53 -173 -132 -173 -80 0 -133 68 -133
168 0 69 18 113 59 148 40 33 90 35 138 6z"/>
<path d="M7030 2399 l0 -151 -35 31 c-61 53 -159 63 -242 24 -54 -25 -110 -95
-129 -159 -33 -114 -7 -262 60 -341 76 -90 236 -100 324 -20 l22 20 0 -31 0
-32 75 0 75 0 0 405 0 405 -75 0 -75 0 0 -151z m-72 -219 c59 -36 87 -134 62
-219 -12 -44 -54 -87 -97 -102 -28 -9 -40 -7 -78 11 -137 66 -98 330 50 330
17 0 45 -9 63 -20z"/>
<path d="M2969 2323 c-34 -104 -93 -277 -130 -385 l-68 -198 83 0 83 0 25 83
24 82 140 3 140 3 27 -86 28 -85 84 0 84 0 -68 198 c-37 108 -96 281 -130 385
l-63 187 -98 0 -98 0 -63 -187z m212 -131 l46 -157 -95 -3 c-52 -1 -96 -1 -99
1 -5 6 91 326 97 321 2 -3 25 -75 51 -162z"/>
<path d="M3903 2319 c-25 -6 -58 -24 -78 -43 l-35 -33 0 38 0 39 -70 0 -70 0
0 -290 0 -290 69 0 69 0 3 183 c4 167 6 185 26 218 41 65 115 79 164 30 l29
-29 0 -201 0 -201 75 0 75 0 0 208 c0 212 -7 266 -41 313 -36 51 -134 77 -216
58z"/>
<path d="M5722 2312 c-118 -43 -182 -142 -182 -285 0 -88 11 -128 49 -189 44
-70 104 -101 205 -106 116 -6 160 8 223 73 67 69 87 132 81 249 -7 125 -62
213 -157 253 -57 24 -159 26 -219 5z m165 -127 c76 -50 83 -230 13 -305 -24
-26 -36 -30 -78 -30 -40 0 -54 5 -75 26 -39 39 -60 104 -55 167 11 133 105
201 195 142z"/>
<path d="M5100 2030 l0 -290 75 0 75 0 0 179 c0 169 1 180 23 212 31 46 63 61
115 55 l42 -6 0 71 0 71 -60 -4 c-49 -3 -65 -9 -90 -33 l-30 -29 0 32 0 32
-75 0 -75 0 0 -290z"/>
<path d="M6280 2030 l0 -290 75 0 75 0 0 290 0 290 -75 0 -75 0 0 -290z"/>
<path d="M5886 1439 c-35 -28 -37 -95 -3 -127 55 -51 147 -12 147 63 0 74 -84
111 -144 64z"/>
<path d="M5510 1288 c0 -134 -1 -140 -17 -126 -90 78 -252 66 -329 -25 -52
-61 -68 -113 -68 -218 -1 -91 1 -100 34 -165 46 -89 95 -126 180 -132 83 -6
125 4 165 40 l35 30 0 -36 0 -36 75 0 75 0 0 405 0 405 -75 0 -75 0 0 -142z
m-69 -221 c47 -31 69 -79 69 -152 0 -114 -75 -192 -160 -166 -71 21 -119 110
-106 195 20 123 112 180 197 123z"/>
<path d="M3395 1387 c-121 -48 -176 -151 -145 -267 17 -63 70 -110 198 -172
125 -62 146 -87 119 -143 -31 -65 -135 -71 -253 -16 l-64 30 0 -79 0 -80 38
-16 c49 -22 229 -31 286 -14 124 36 190 154 156 276 -18 65 -63 105 -181 164
-55 28 -108 59 -119 70 -27 27 -25 71 3 98 44 41 131 37 250 -13 15 -6 17 0
17 68 l0 75 -32 12 c-47 18 -236 23 -273 7z"/>
<path d="M3950 1280 l0 -70 -45 0 -45 0 0 -55 0 -55 45 0 45 0 0 -183 c0 -157
3 -187 18 -217 26 -50 90 -80 167 -80 103 0 105 2 105 77 0 58 -2 64 -17 58
-51 -20 -81 -17 -107 8 -26 26 -26 28 -26 182 l0 155 70 0 70 0 0 55 0 55 -70
0 -70 0 0 70 0 70 -70 0 -70 0 0 -70z"/>
<path d="M6407 1210 c-21 -6 -50 -16 -66 -25 -43 -22 -108 -100 -125 -152 -18
-53 -21 -170 -6 -225 18 -65 70 -130 129 -160 46 -24 64 -28 140 -28 130 1
207 46 255 150 31 67 30 237 -1 296 -33 63 -69 100 -116 123 -49 24 -156 34
-210 21z m140 -136 c41 -26 58 -72 58 -159 0 -95 -21 -140 -76 -168 -45 -22
-91 -14 -128 23 -68 68 -67 222 1 290 41 41 94 46 145 14z"/>
<path d="M4410 982 c0 -216 1 -230 23 -272 50 -100 224 -124 309 -43 l28 27 0
-37 0 -37 75 0 75 0 0 295 0 295 -75 0 -75 0 0 -180 c0 -190 -7 -227 -48 -263
-11 -10 -38 -21 -60 -24 -33 -4 -44 -1 -73 25 l-34 30 -3 206 -4 206 -69 0
-69 0 0 -228z"/>
<path d="M5870 915 l0 -295 75 0 75 0 0 295 0 295 -75 0 -75 0 0 -295z"/>
</g>
</svg>
