<?xml version="1.0" standalone="no"?>
<!DOCTYPE svg PUBLIC "-//W3C//DTD SVG 20010904//EN"
 "http://www.w3.org/TR/2001/REC-SVG-20010904/DTD/svg10.dtd">
<svg version="1.0" xmlns="http://www.w3.org/2000/svg"
 width="250.000000pt" height="75.000000pt" viewBox="0 0 1000.000000 300.000000"
 preserveAspectRatio="xMidYMid meet">
<metadata>
Created by potrace 1.16, written by Peter Selinger 2001-2019
</metadata>
<g transform="translate(0.000000,300.000000) scale(0.100000,-0.100000)"
fill="#960014" stroke="none">
<path d="M4060 2545 c-67 -71 12 -174 105 -139 26 10 48 62 40 100 -12 65 -99
88 -145 39z"/>
<path d="M5149 2560 c-23 -14 -42 -65 -35 -95 9 -37 45 -65 84 -65 45 0 67 13
82 49 25 61 -14 121 -77 121 -21 0 -45 -5 -54 -10z"/>
<path d="M6630 2145 l0 -405 75 0 75 0 0 405 0 405 -75 0 -75 0 0 -405z"/>
<path d="M3210 2125 l0 -387 193 4 193 3 66 33 c77 38 130 92 167 171 24 51
26 67 26 176 0 111 -2 124 -28 177 -36 73 -119 149 -195 179 -50 19 -81 23
-239 27 l-183 4 0 -387z m365 227 c108 -55 154 -172 121 -303 -32 -122 -101
-176 -240 -186 l-86 -6 0 263 0 263 83 -5 c55 -4 96 -12 122 -26z"/>
<path d="M5510 2390 l0 -70 -40 0 -40 0 0 -55 0 -55 39 0 39 0 4 -177 c4 -210
14 -242 88 -280 48 -25 138 -31 184 -13 24 9 26 14 26 75 l0 66 -30 -16 c-39
-20 -62 -19 -94 6 l-26 20 0 160 0 159 70 0 70 0 0 55 0 55 -70 0 -70 0 0 70
0 70 -75 0 -75 0 0 -70z"/>
<path d="M4567 2320 c-61 -11 -118 -58 -152 -125 -28 -54 -30 -66 -30 -164 0
-114 11 -147 64 -204 78 -85 220 -99 302 -29 l32 27 -7 -44 c-10 -63 -30 -96
-72 -116 -49 -23 -152 -17 -211 14 -23 11 -45 21 -48 21 -3 0 -5 -34 -5 -75
l0 -74 56 -17 c68 -20 195 -22 249 -4 63 21 114 60 143 109 l27 46 3 318 3
317 -70 0 -71 0 0 -34 0 -34 -30 28 c-16 15 -50 33 -74 39 -49 12 -53 12 -109
1z m155 -147 c55 -50 71 -169 30 -234 -33 -54 -87 -76 -136 -55 -66 27 -97
103 -81 198 6 31 18 54 46 82 36 35 43 38 80 33 22 -3 50 -14 61 -24z"/>
<path d="M6077 2320 c-74 -19 -77 -23 -77 -100 l0 -70 42 22 c44 23 138 35
183 24 27 -7 55 -55 55 -95 0 -17 -10 -19 -97 -23 -143 -6 -199 -39 -224 -132
-26 -95 40 -197 135 -211 62 -10 129 2 160 26 l26 20 0 -20 c0 -19 6 -21 76
-21 l76 0 -4 223 c-3 216 -4 223 -28 267 -37 66 -90 92 -199 96 -47 2 -103 -1
-124 -6z m203 -364 c0 -72 -52 -124 -113 -112 -43 9 -57 24 -57 61 0 50 37 75
111 75 55 0 59 -2 59 -24z"/>
<path d="M4050 2030 l0 -290 70 0 70 0 0 290 0 290 -70 0 -70 0 0 -290z"/>
<path d="M5130 2030 l0 -290 70 0 70 0 0 290 0 290 -70 0 -70 0 0 -290z"/>
<path d="M6225 1435 c-31 -30 -33 -82 -4 -119 28 -35 95 -37 127 -3 51 55 12
147 -63 147 -25 0 -44 -8 -60 -25z"/>
<path d="M4380 1020 l0 -400 75 0 74 0 3 138 3 137 95 -137 95 -138 83 0 c48
0 82 4 82 10 0 5 -47 75 -105 154 l-104 145 104 135 c58 74 105 138 105 141 0
3 -38 5 -84 5 l-84 0 -96 -126 -96 -127 0 232 0 231 -75 0 -75 0 0 -400z"/>
<path d="M2256 1378 c-3 -13 -16 -176 -31 -363 -14 -187 -27 -352 -30 -367
l-4 -28 78 0 78 0 6 73 c4 39 12 161 19 269 l12 198 67 -193 c37 -105 77 -221
90 -257 l24 -65 57 -3 56 -3 20 53 c11 29 52 142 92 251 41 108 77 197 82 197
4 0 8 -19 8 -42 0 -47 26 -367 35 -435 l6 -43 75 0 c41 0 74 3 74 8 0 4 -16
179 -36 390 l-37 382 -87 0 -86 0 -59 -152 c-32 -84 -78 -207 -101 -273 -24
-66 -43 -114 -43 -107 -1 13 -99 288 -161 450 l-32 82 -84 0 c-79 0 -84 -1
-88 -22z"/>
<path d="M5740 1280 l0 -70 -45 0 -45 0 0 -55 0 -55 44 0 45 0 3 -189 c3 -207
6 -216 72 -265 32 -24 153 -34 199 -17 25 10 27 14 27 72 0 59 -1 61 -22 55
-62 -18 -84 -18 -108 2 -24 20 -25 24 -28 181 l-3 161 75 0 76 0 0 55 0 55
-75 0 -75 0 0 70 0 70 -70 0 -70 0 0 -70z"/>
<path d="M3390 1213 c-14 -2 -44 -11 -67 -19 l-43 -16 0 -70 c0 -38 3 -68 8
-66 58 31 98 42 154 46 61 4 69 2 92 -21 18 -18 26 -37 26 -60 l0 -35 -92 -4
c-147 -6 -217 -56 -225 -160 -11 -147 140 -235 280 -164 l47 23 0 -23 c0 -23
3 -24 70 -24 l70 0 0 225 c0 251 -4 270 -63 322 -50 44 -154 63 -257 46z m170
-385 c-1 -46 -12 -68 -47 -86 -35 -19 -72 -14 -98 13 -32 32 -31 50 4 86 26
25 37 29 85 29 l56 0 0 -42z"/>
<path d="M3910 915 l0 -295 75 0 75 0 0 175 c0 156 2 180 20 215 26 50 70 74
122 66 l38 -6 0 70 0 70 -45 0 c-52 0 -96 -19 -119 -52 -16 -22 -16 -22 -16
15 l0 37 -75 0 -75 0 0 -295z"/>
<path d="M5165 1191 c-53 -24 -103 -75 -129 -131 -17 -36 -21 -65 -21 -140 0
-75 4 -104 21 -140 25 -55 72 -103 128 -132 57 -30 191 -37 269 -14 l57 17 0
64 c0 36 -2 65 -4 65 -2 0 -23 -9 -47 -20 -91 -41 -218 -15 -259 52 -11 18
-20 36 -20 41 0 4 80 7 179 7 l179 0 6 44 c11 70 -11 171 -48 218 -48 63 -103
88 -195 88 -52 0 -89 -6 -116 -19z m159 -105 c24 -10 38 -25 49 -55 10 -23 17
-46 17 -51 0 -6 -47 -10 -115 -10 -78 0 -115 4 -115 11 0 26 45 89 74 103 39
19 48 19 90 2z"/>
<path d="M6210 915 l0 -295 75 0 75 0 0 295 0 295 -75 0 -75 0 0 -295z"/>
<path d="M6570 915 l0 -295 75 0 75 0 0 185 c0 201 5 224 56 264 39 31 89 28
125 -8 l29 -29 0 -206 0 -206 76 0 75 0 -3 233 c-3 203 -5 237 -22 270 -30 60
-69 81 -157 85 -82 4 -119 -8 -159 -50 l-20 -22 0 37 0 37 -75 0 -75 0 0 -295z"/>
<path d="M7395 1193 c-49 -25 -92 -73 -116 -127 -19 -41 -23 -69 -23 -146 0
-104 12 -142 59 -198 74 -88 234 -107 310 -36 l28 26 -5 -46 c-11 -93 -66
-132 -178 -124 -39 3 -82 14 -107 27 -23 11 -45 21 -48 21 -3 0 -5 -34 -5 -75
l0 -74 58 -18 c34 -10 91 -17 142 -17 102 0 173 27 221 82 62 70 63 78 67 415
l4 307 -76 0 -76 0 0 -32 0 -31 -22 21 c-13 11 -36 25 -51 31 -42 16 -147 13
-182 -6z m211 -146 c77 -84 47 -245 -51 -277 -30 -10 -41 -9 -72 7 -51 25 -75
70 -75 141 0 74 22 126 64 152 46 29 94 21 134 -23z"/>
</g>
</svg>
