<?xml version="1.0" standalone="no"?>
<!DOCTYPE svg PUBLIC "-//W3C//DTD SVG 20010904//EN"
 "http://www.w3.org/TR/2001/REC-SVG-20010904/DTD/svg10.dtd">
<svg version="1.0" xmlns="http://www.w3.org/2000/svg"
 width="250.000000pt" height="75.000000pt" viewBox="0 0 1000.000000 300.000000"
 preserveAspectRatio="xMidYMid meet">
<metadata>
Created by potrace 1.16, written by Peter Selinger 2001-2019
</metadata>
<g transform="translate(0.000000,300.000000) scale(0.100000,-0.100000)"
fill="#960014" stroke="none">
<path d="M7505 2525 c-56 -55 -16 -145 63 -145 52 0 82 32 82 86 0 29 -6 47
-23 62 -33 31 -90 30 -122 -3z"/>
<path d="M4350 2125 l0 -405 70 0 70 0 1 173 c0 111 5 184 13 207 22 62 104
98 158 69 40 -21 48 -67 48 -264 l0 -185 76 0 76 0 -4 223 c-5 231 -10 261
-51 305 -38 41 -77 56 -147 55 -70 0 -99 -10 -142 -51 l-28 -26 0 152 0 152
-70 0 -70 0 0 -405z"/>
<path d="M1439 2476 c-115 -41 -171 -148 -139 -266 17 -63 69 -108 193 -169
58 -28 110 -58 117 -67 22 -26 16 -73 -14 -102 -24 -24 -34 -27 -94 -27 -64 1
-85 7 -194 63 -5 2 -8 -32 -8 -76 l0 -80 48 -19 c68 -26 262 -26 312 1 104 55
146 147 120 258 -17 69 -62 110 -196 178 -83 42 -111 61 -118 81 -33 96 95
139 232 79 24 -11 46 -20 48 -20 2 0 4 34 4 75 l0 74 -52 16 c-63 18 -209 19
-259 1z"/>
<path d="M5400 2105 l0 -385 235 0 235 0 0 60 0 60 -155 0 -155 0 0 100 0 100
135 0 135 0 0 60 0 60 -135 0 -135 0 0 100 0 100 150 0 150 0 0 65 0 65 -230
0 -230 0 0 -385z"/>
<path d="M2727 2300 c-74 -19 -77 -23 -77 -100 l0 -70 42 22 c44 23 138 35
183 24 27 -7 55 -55 55 -95 0 -17 -9 -19 -97 -23 -81 -3 -106 -8 -142 -28 -58
-32 -84 -77 -84 -144 0 -122 92 -192 227 -172 25 4 56 16 70 27 l26 20 0 -20
c0 -19 6 -21 75 -21 l75 0 0 203 c0 264 -14 313 -103 359 -48 24 -186 34 -250
18z m203 -365 c0 -44 -27 -94 -57 -106 -37 -14 -90 -3 -103 21 -33 62 10 110
101 110 56 0 59 -1 59 -25z"/>
<path d="M3937 2300 c-141 -36 -221 -147 -220 -306 1 -113 48 -197 141 -251
40 -24 60 -28 142 -31 71 -3 105 0 133 11 l37 16 0 66 0 66 -32 -18 c-49 -26
-158 -24 -194 3 -62 46 -90 117 -74 188 25 112 131 163 250 121 23 -8 44 -15
46 -15 2 0 4 29 4 63 0 60 -2 65 -27 76 -36 17 -158 23 -206 11z"/>
<path d="M6345 2304 c-11 -3 -30 -7 -42 -10 -13 -2 -38 -18 -58 -35 l-35 -31
0 36 0 36 -75 0 -75 0 0 -290 0 -290 75 0 75 0 0 175 c0 192 7 225 55 263 33
26 91 29 122 7 35 -24 43 -77 43 -267 l0 -178 70 0 70 0 0 220 c0 230 -6 266
-48 313 -34 38 -123 63 -177 51z"/>
<path d="M6935 2301 c-129 -33 -191 -139 -183 -315 3 -77 8 -99 30 -137 65
-111 217 -150 322 -82 l39 25 -5 -46 c-14 -122 -140 -150 -320 -71 -16 6 -18
0 -18 -68 l0 -74 55 -17 c33 -11 89 -18 142 -18 132 -1 215 41 266 137 21 38
22 55 25 353 l3 312 -75 0 -76 0 0 -32 0 -31 -22 20 c-13 11 -32 25 -43 31
-29 15 -105 22 -140 13z m143 -141 c42 -26 62 -73 62 -147 0 -117 -89 -189
-176 -142 -84 45 -84 239 0 290 40 24 73 24 114 -1z"/>
<path d="M8113 2301 c-36 -9 -82 -37 -100 -60 -10 -13 -12 -10 -13 22 l0 37
-75 0 -75 0 0 -290 0 -290 75 0 75 0 0 180 c0 196 5 219 56 259 46 36 121 22
143 -26 7 -15 11 -97 11 -218 l0 -195 75 0 75 0 0 218 c-1 226 -7 270 -47 314
-36 41 -136 65 -200 49z"/>
<path d="M2094 2286 c-17 -7 -47 -28 -68 -46 -128 -113 -120 -371 15 -473 74
-55 210 -73 317 -42 l52 16 0 64 c0 36 -2 65 -4 65 -2 0 -23 -9 -47 -20 -84
-38 -199 -17 -247 45 -42 53 -38 54 156 57 l177 3 0 90 c0 117 -26 175 -100
220 -43 26 -59 30 -134 33 -57 1 -96 -2 -117 -12z m150 -106 c30 -11 66 -65
66 -97 0 -23 -2 -23 -116 -23 -115 0 -115 0 -109 23 12 37 35 67 68 87 36 22
54 24 91 10z"/>
<path d="M3280 2010 l0 -290 70 0 70 0 0 156 c0 181 9 222 58 266 32 27 40 30
84 25 l48 -6 0 69 0 70 -53 0 c-54 0 -85 -14 -119 -55 -17 -20 -17 -19 -18 18
l0 37 -70 0 -70 0 0 -290z"/>
<path d="M7490 2010 l0 -290 75 0 75 0 0 290 0 290 -75 0 -75 0 0 -290z"/>
<path d="M8672 2274 c-53 -26 -84 -59 -118 -124 -14 -27 -19 -58 -19 -135 0
-114 17 -164 76 -224 58 -59 110 -76 224 -76 58 0 116 6 138 13 l37 14 0 64
c0 35 -4 64 -8 64 -5 0 -24 -8 -43 -17 -46 -24 -162 -24 -207 0 -29 16 -72 69
-72 90 0 4 81 7 180 7 l180 0 2 38 c7 156 -34 251 -126 293 -65 29 -178 26
-244 -7z m177 -99 c26 -13 40 -36 56 -92 6 -23 6 -23 -110 -23 l-117 0 6 26
c11 41 37 76 71 90 39 17 60 17 94 -1z"/>
<path d="M3715 1415 c-31 -30 -33 -82 -4 -119 28 -35 95 -37 127 -3 51 55 12
147 -63 147 -25 0 -44 -8 -60 -25z"/>
<path d="M5106 1419 c-35 -28 -37 -95 -3 -127 55 -51 147 -12 147 63 0 74 -84
111 -144 64z"/>
<path d="M7205 1415 c-56 -55 -16 -145 63 -145 52 0 82 32 82 87 0 33 -6 46
-26 62 -37 29 -89 27 -119 -4z"/>
<path d="M1807 1380 c-140 -36 -234 -148 -258 -311 -28 -192 48 -367 189 -436
52 -26 66 -28 172 -28 106 0 120 2 172 28 141 69 217 245 189 435 -21 142 -80
230 -187 283 -57 28 -79 33 -153 36 -47 1 -103 -2 -124 -7z m171 -145 c84 -36
123 -103 130 -221 9 -169 -66 -273 -197 -274 -88 0 -161 58 -191 154 -18 57
-9 191 17 241 51 97 149 138 241 100z"/>
<path d="M3230 1260 l0 -70 -45 0 -45 0 0 -55 0 -55 44 0 45 0 3 -189 c3 -207
6 -216 72 -265 32 -24 153 -34 199 -17 25 10 27 14 27 72 0 59 -1 61 -22 55
-62 -18 -84 -18 -108 2 -24 20 -25 24 -28 181 l-3 161 75 0 76 0 0 55 0 55
-75 0 -75 0 0 70 0 70 -70 0 -70 0 0 -70z"/>
<path d="M6720 1260 l0 -70 -45 0 -45 0 0 -55 0 -55 44 0 44 0 4 -189 c3 -207
6 -216 72 -265 32 -24 153 -34 199 -17 25 10 27 14 27 72 0 59 -1 61 -22 54
-53 -16 -79 -17 -103 -1 -25 16 -25 17 -25 181 l0 165 70 0 70 0 0 55 0 55
-70 0 -70 0 0 70 0 70 -75 0 -75 0 0 -70z"/>
<path d="M2715 1189 c-22 -5 -57 -23 -77 -40 l-38 -30 0 36 0 35 -70 0 -70 0
0 -400 0 -400 70 0 70 0 0 142 0 141 23 -20 c41 -38 84 -53 149 -53 80 0 133
24 181 81 52 60 70 129 65 243 -8 167 -78 253 -218 269 -25 3 -63 1 -85 -4z
m85 -136 c66 -38 94 -172 52 -252 -51 -101 -168 -101 -227 -1 -26 46 -27 155
0 196 44 68 116 92 175 57z"/>
<path d="M6155 1190 c-94 -20 -95 -22 -95 -100 l0 -70 43 21 c27 14 67 24 114
27 67 4 73 3 97 -21 18 -18 26 -37 26 -62 l0 -35 -73 0 c-161 0 -247 -61 -247
-175 0 -101 57 -163 160 -172 66 -6 142 15 160 45 7 14 9 10 10 -15 l0 -33 70
0 70 0 0 220 c0 272 -9 304 -104 352 -45 23 -166 32 -231 18z m185 -381 c0
-31 -6 -47 -29 -70 -60 -59 -156 -20 -137 56 9 34 51 54 114 55 l52 0 0 -41z"/>
<path d="M7718 1187 c-128 -37 -207 -167 -196 -326 8 -113 64 -202 153 -242
62 -29 195 -26 262 5 58 27 113 93 133 159 16 55 14 180 -5 237 -21 62 -83
133 -136 154 -57 23 -154 29 -211 13z m152 -136 c37 -27 54 -68 58 -146 3 -58
-1 -78 -20 -115 -30 -60 -82 -87 -133 -70 -74 25 -116 124 -95 226 24 113 111
162 190 105z"/>
<path d="M3700 895 l0 -295 75 0 75 0 0 295 0 295 -75 0 -75 0 0 -295z"/>
<path d="M4060 895 l0 -295 75 0 75 0 0 190 c0 211 6 237 60 265 42 22 73 19
101 -11 24 -25 24 -29 27 -235 l3 -209 75 0 74 0 0 185 c0 202 7 238 53 268
38 25 79 22 108 -9 24 -25 24 -29 27 -235 l3 -209 75 0 74 0 0 188 c0 276 -12
327 -90 380 -26 17 -47 22 -97 22 -75 0 -125 -20 -156 -61 l-20 -29 -18 30
c-26 41 -68 60 -138 60 -67 0 -106 -12 -138 -42 l-23 -21 0 31 0 32 -75 0 -75
0 0 -295z"/>
<path d="M5090 895 l0 -295 75 0 75 0 0 295 0 295 -75 0 -75 0 0 -295z"/>
<path d="M5430 1130 l0 -59 123 -3 124 -3 -128 -175 -129 -175 0 -57 0 -58
225 0 225 0 0 60 0 59 -138 3 -139 3 128 175 128 175 1 58 0 57 -210 0 -210 0
0 -60z"/>
<path d="M7190 895 l0 -295 75 0 75 0 0 295 0 295 -75 0 -75 0 0 -295z"/>
<path d="M8260 895 l0 -295 75 0 75 0 0 185 c0 201 5 224 56 264 39 31 89 28
125 -8 l29 -29 0 -206 0 -206 76 0 75 0 -3 233 c-3 203 -5 237 -22 270 -30 60
-69 81 -157 85 -82 4 -119 -8 -159 -50 l-20 -22 0 37 0 37 -75 0 -75 0 0 -295z"/>
</g>
</svg>
